<?xml version="1.0" encoding="UTF-8" standalone="no"?>
<!-- Created with Inkscape (http://www.inkscape.org/) -->

<svg
   xmlns:dc="http://purl.org/dc/elements/1.1/"
   xmlns:cc="http://creativecommons.org/ns#"
   xmlns:rdf="http://www.w3.org/1999/02/22-rdf-syntax-ns#"
   xmlns:svg="http://www.w3.org/2000/svg"
   xmlns="http://www.w3.org/2000/svg"
   xmlns:sodipodi="http://sodipodi.sourceforge.net/DTD/sodipodi-0.dtd"
   xmlns:inkscape="http://www.inkscape.org/namespaces/inkscape"
   width="35.321873mm"
   height="39.766876mm"
   viewBox="0 0 35.321873 39.766876"
   version="1.1"
   id="svg5585"
   inkscape:version="0.92.5 (2060ec1f9f, 2020-04-08)"
   sodipodi:docname="medalla2.svg">
  <defs
     id="defs5579" />
  <sodipodi:namedview
     id="base"
     pagecolor="#ffffff"
     bordercolor="#666666"
     borderopacity="1.0"
     inkscape:pageopacity="0.0"
     inkscape:pageshadow="2"
     inkscape:zoom="0.35"
     inkscape:cx="306.75002"
     inkscape:cy="-24.850001"
     inkscape:document-units="mm"
     inkscape:current-layer="layer1"
     showgrid="false"
     fit-margin-top="0"
     fit-margin-left="0"
     fit-margin-right="0"
     fit-margin-bottom="0"
     inkscape:window-width="1848"
     inkscape:window-height="1016"
     inkscape:window-x="72"
     inkscape:window-y="27"
     inkscape:window-maximized="1" />
  <metadata
     id="metadata5582">
    <rdf:RDF>
      <cc:Work
         rdf:about="">
        <dc:format>image/svg+xml</dc:format>
        <dc:type
           rdf:resource="http://purl.org/dc/dcmitype/StillImage" />
        <dc:title></dc:title>
      </cc:Work>
    </rdf:RDF>
  </metadata>
  <g
     inkscape:label="Layer 1"
     inkscape:groupmode="layer"
     id="layer1"
     transform="translate(-24.672391,-102.49156)">
    <g
       transform="matrix(0.26458333,0,0,0.26458333,-133.38969,-5.8288526)"
       id="g4741">
      <g
         id="g4721">
        <g
           id="g4711">
          <polygon
             style="fill:#b92025"
             points="696.1,498.6 677.5,509.4 699.3,546.9 703.4,532.4 717.7,535.9 "
             id="polygon4705" />
          <polygon
             style="fill:#b92025"
             points="668.8,514.4 695,559.5 695.8,559 697.8,552 674.2,511.3 "
             id="polygon4707" />
          <polygon
             style="fill:#b92025"
             points="704.7,493.5 699.3,496.7 722.8,537.1 730.3,538.9 730.9,538.6 "
             id="polygon4709" />
        </g>
        <g
           id="g4719">
          <polygon
             style="fill:#b92025"
             points="632.1,498.8 650.7,509.5 629.1,547.1 624.9,532.6 610.6,536.2 "
             id="polygon4713" />
          <polygon
             style="fill:#b92025"
             points="659.4,514.5 633.5,559.7 632.7,559.2 630.6,552.2 654,511.4 "
             id="polygon4715" />
          <polygon
             style="fill:#b92025"
             points="623.4,493.8 628.8,496.9 605.5,537.5 598,539.3 597.4,539 "
             id="polygon4717" />
        </g>
      </g>
      <g
         id="g4739">
        <path
           style="fill:#ffffff"
           inkscape:connector-curvature="0"
           d="m 664.1,422.9 c -23.7,0 -42.9,19.2 -42.9,42.9 0,23.7 19.2,42.9 42.9,42.9 23.7,0 42.9,-19.2 42.9,-42.9 0,-23.6 -19.2,-42.9 -42.9,-42.9 z"
           id="path4723" />
        <path
           style="fill:#fbcc34"
           inkscape:connector-curvature="0"
           d="m 664.1,409.4 c -31.1,0 -56.4,25.3 -56.4,56.4 0,31.1 25.3,56.4 56.4,56.4 31.1,0 56.4,-25.3 56.4,-56.4 0,-31.1 -25.3,-56.4 -56.4,-56.4 z"
           id="path4725" />
        <g
           id="g4731">
          <path
             style="fill:#fffac2"
             inkscape:connector-curvature="0"
             d="M 676.9,410.9 623,504.3 c 3.1,3.3 6.6,6.3 10.5,8.8 l 56.3,-97.5 c -4.1,-2 -8.4,-3.6 -12.9,-4.7 z"
             id="path4727" />
          <path
             style="fill:#fffac2"
             inkscape:connector-curvature="0"
             d="m 700.9,423.2 c -2.1,-1.8 -4.3,-3.4 -6.6,-4.9 L 638,515.7 c 2.4,1.3 4.9,2.4 7.6,3.3 z"
             id="path4729" />
        </g>
        <path
           style="fill:#eaab30"
           inkscape:connector-curvature="0"
           d="m 664.1,422.9 c -23.7,0 -42.9,19.2 -42.9,42.9 0,23.7 19.2,42.9 42.9,42.9 23.7,0 42.9,-19.2 42.9,-42.9 0,-23.6 -19.2,-42.9 -42.9,-42.9 z"
           id="path4733" />
        <path
           style="fill:#fbcc34"
           inkscape:connector-curvature="0"
           d="m 667,425.8 c -23.7,0 -42.9,19.2 -42.9,42.9 0,11.1 4.2,21.2 11.2,28.8 7.6,6.9 17.7,11.2 28.8,11.2 23.7,0 42.9,-19.2 42.9,-42.9 0,-11.1 -4.2,-21.2 -11.2,-28.8 -7.5,-7 -17.7,-11.2 -28.8,-11.2 z"
           id="path4735" />
        <path
           style="fill:#eaab30"
           inkscape:connector-curvature="0"
           d="m 649.7,472.6 -2.2,12.6 c -0.4,2.3 2,4 4,2.9 l 11.3,-6 c 0.8,-0.4 1.8,-0.4 2.6,0 l 11.3,6 c 2,1.1 4.4,-0.7 4,-2.9 l -2.2,-12.6 c -0.2,-0.9 0.1,-1.8 0.8,-2.5 l 9.2,-8.9 c 1.6,-1.6 0.7,-4.4 -1.5,-4.7 l -12.7,-1.8 c -0.9,-0.1 -1.7,-0.7 -2.1,-1.5 l -5.7,-11.5 c -1,-2.1 -4,-2.1 -5,0 l -5.7,11.5 c -0.4,0.8 -1.2,1.4 -2.1,1.5 l -12.7,1.8 c -2.3,0.3 -3.2,3.1 -1.5,4.7 l 9.2,8.9 c 0.8,0.7 1.1,1.6 1,2.5 z"
           id="path4737" />
      </g>
    </g>
  </g>
</svg>
