<?xml version="1.0" encoding="UTF-8" standalone="no"?>
<!-- Created with Inkscape (http://www.inkscape.org/) -->

<svg
   xmlns:dc="http://purl.org/dc/elements/1.1/"
   xmlns:cc="http://creativecommons.org/ns#"
   xmlns:rdf="http://www.w3.org/1999/02/22-rdf-syntax-ns#"
   xmlns:svg="http://www.w3.org/2000/svg"
   xmlns="http://www.w3.org/2000/svg"
   xmlns:sodipodi="http://sodipodi.sourceforge.net/DTD/sodipodi-0.dtd"
   xmlns:inkscape="http://www.inkscape.org/namespaces/inkscape"
   width="39.727188mm"
   height="31.587456mm"
   viewBox="0 0 39.727188 31.587456"
   version="1.1"
   id="svg5317"
   inkscape:version="0.92.5 (2060ec1f9f, 2020-04-08)"
   sodipodi:docname="medalla1.svg">
  <defs
     id="defs5311" />
  <sodipodi:namedview
     id="base"
     pagecolor="#ffffff"
     bordercolor="#666666"
     borderopacity="1.0"
     inkscape:pageopacity="0.0"
     inkscape:pageshadow="2"
     inkscape:zoom="0.35"
     inkscape:cx="237.93214"
     inkscape:cy="136.83569"
     inkscape:document-units="mm"
     inkscape:current-layer="layer1"
     showgrid="false"
     fit-margin-top="0"
     fit-margin-left="0"
     fit-margin-right="0"
     fit-margin-bottom="0"
     inkscape:window-width="1848"
     inkscape:window-height="1016"
     inkscape:window-x="72"
     inkscape:window-y="27"
     inkscape:window-maximized="1" />
  <metadata
     id="metadata5314">
    <rdf:RDF>
      <cc:Work
         rdf:about="">
        <dc:format>image/svg+xml</dc:format>
        <dc:type
           rdf:resource="http://purl.org/dc/dcmitype/StillImage" />
        <dc:title></dc:title>
      </cc:Work>
    </rdf:RDF>
  </metadata>
  <g
     inkscape:label="Layer 1"
     inkscape:groupmode="layer"
     id="layer1"
     transform="translate(-42.880455,-153.45032)">
    <g
       transform="matrix(0.26458333,0,0,0.26458333,15.701132,41.022683)"
       id="g4633">
      <path
         style="fill:#fbcc34"
         inkscape:connector-curvature="0"
         d="m 160.3,488.6 -2.8,16.1 c -0.4,2.5 2.2,4.3 4.4,3.2 l 14.5,-7.6 c 0.9,-0.5 1.9,-0.5 2.8,0 l 14.5,7.6 c 2.2,1.2 4.8,-0.7 4.4,-3.2 l -2.8,-16.1 c -0.2,-1 0.2,-2 0.9,-2.7 l 11.7,-11.4 c 1.8,-1.7 0.8,-4.8 -1.7,-5.1 L 190,467 c -1,-0.1 -1.8,-0.8 -2.3,-1.6 l -7.2,-14.7 c -1.1,-2.2 -4.3,-2.2 -5.4,0 l -7.2,14.7 c -0.4,0.9 -1.3,1.5 -2.3,1.6 l -16.2,2.4 c -2.5,0.4 -3.4,3.4 -1.7,5.1 l 11.7,11.4 c 0.8,0.7 1.1,1.7 0.9,2.7 z"
         id="path4505" />
      <g
         id="g4565">
        <g
           id="g4513">
          <path
             style="fill:#fbcc34"
             inkscape:connector-curvature="0"
             d="m 204.6,528.5 c -1,2.9 -0.7,6.1 0.9,8.3 3.3,-1.2 6.2,-3.8 7,-7.1 0.4,-1.6 0.4,-3.1 -0.1,-4.5 -0.5,-1.4 -1.3,-2.5 -2.3,-3.5 -0.6,0.4 -1.3,0.7 -1.8,1.2 -0.6,0.5 -1.1,1 -1.5,1.6 -0.5,0.5 -0.9,1.2 -1.3,1.8 -0.3,0.8 -0.6,1.5 -0.9,2.2 z"
             id="path4507" />
          <path
             style="fill:#fbcc34"
             inkscape:connector-curvature="0"
             d="m 204.6,528.5 c -1,2.9 -0.7,6.1 0.9,8.3 3.3,-1.2 6.2,-3.8 7,-7.1 0.4,-1.6 0.4,-3.1 -0.1,-4.5 -0.5,-1.4 -1.3,-2.5 -2.3,-3.5 -0.6,0.4 -1.3,0.7 -1.8,1.2 -0.6,0.5 -1.1,1 -1.5,1.6 -0.5,0.5 -0.9,1.2 -1.3,1.8 -0.3,0.8 -0.6,1.5 -0.9,2.2 z"
             id="path4509" />
          <path
             style="fill:#fbcc34"
             inkscape:connector-curvature="0"
             d="m 213.3,544.2 c -3.8,-0.4 -6,-2.6 -6.7,-5.3 3,-2 6.7,-3.1 10.2,-3.1 1.8,0 3.4,0.4 4.7,1.1 1.3,0.7 2.3,1.7 2.9,3 -0.7,0.7 -1.6,1.4 -2.5,1.9 -0.9,0.6 -1.8,1.1 -2.8,1.5 -1,0.4 -2,0.6 -2.9,0.8 -1,0.2 -2,0.3 -2.9,0.1 z"
             id="path4511" />
        </g>
        <g
           id="g4519">
          <path
             style="fill:#fbcc34"
             inkscape:connector-curvature="0"
             d="m 219.8,447.2 c 3.1,0.5 6.1,-0.5 8,-2.5 -0.9,-1.5 -2.1,-2.9 -3.6,-3.8 -0.7,-0.5 -1.5,-0.9 -2.3,-1.2 -0.8,-0.3 -1.6,-0.4 -2.5,-0.5 -3.3,-0.3 -5.9,1.5 -7.4,3.9 0.5,0.5 1,1.1 1.6,1.5 0.6,0.5 1.2,0.9 1.8,1.2 1.3,0.8 2.8,1.2 4.4,1.4 z"
             id="path4515" />
          <path
             style="fill:#fbcc34"
             inkscape:connector-curvature="0"
             d="m 233.5,435.7 c 0.3,3.8 -1.3,6.4 -3.9,7.6 -1.3,-1.3 -2.3,-2.8 -3.2,-4.4 -0.4,-0.8 -0.8,-1.6 -1.1,-2.5 -0.3,-0.8 -0.6,-1.7 -0.7,-2.6 -0.6,-3.6 0.2,-6.6 2.5,-8.2 0.9,0.6 1.7,1.3 2.4,2.1 0.7,0.8 1.4,1.6 2,2.4 1,1.8 1.8,3.7 2,5.6 z"
             id="path4517" />
        </g>
        <g
           id="g4525">
          <path
             style="fill:#fbcc34"
             inkscape:connector-curvature="0"
             d="m 226.3,457 c 1.5,0.6 3,0.8 4.4,0.6 1.4,-0.1 2.8,-0.6 3.9,-1.4 -0.3,-0.8 -0.7,-1.6 -1.1,-2.4 -0.5,-0.8 -0.9,-1.5 -1.6,-2.1 -0.6,-0.6 -1.3,-1.2 -2,-1.6 -0.4,-0.2 -0.7,-0.4 -1.1,-0.6 -0.4,-0.2 -0.8,-0.3 -1.2,-0.4 -3.2,-0.9 -6.1,0.1 -8,2.2 0.3,0.7 0.7,1.3 1.2,1.8 0.5,0.6 1,1.1 1.5,1.6 1.2,1 2.6,1.8 4,2.3 z"
             id="path4521" />
          <path
             style="fill:#fbcc34"
             inkscape:connector-curvature="0"
             d="m 242.2,448.8 c -0.2,1.9 -0.9,3.4 -1.9,4.5 -1,1.1 -2.2,1.8 -3.6,2.1 -0.5,-0.8 -0.9,-1.6 -1.3,-2.4 -0.4,-0.8 -0.6,-1.7 -0.9,-2.6 -0.3,-0.9 -0.5,-1.7 -0.6,-2.6 -0.1,-0.4 -0.1,-0.9 -0.1,-1.4 0,-0.4 0,-0.9 0,-1.3 0.1,-3.6 1.7,-6.4 4.3,-7.5 0.7,0.8 1.3,1.7 1.9,2.6 0.6,0.9 1.1,1.8 1.4,2.8 0.7,1.9 1.1,3.8 0.8,5.8 z"
             id="path4523" />
        </g>
        <g
           id="g4531">
          <path
             style="fill:#fbcc34"
             inkscape:connector-curvature="0"
             d="m 230.5,468 c 2.7,1.7 5.7,2.2 8.3,1.1 0,-0.9 -0.3,-1.7 -0.5,-2.6 -0.3,-0.8 -0.6,-1.6 -1,-2.4 -1,-1.5 -2.1,-2.7 -3.6,-3.5 -3,-1.6 -6,-1.2 -8.3,0.4 0.3,1.4 1.1,2.7 1.9,3.9 0.4,0.6 0.9,1.2 1.5,1.7 0.5,0.5 1.1,1 1.7,1.4 z"
             id="path4527" />
          <path
             style="fill:#fbcc34"
             inkscape:connector-curvature="0"
             d="m 247.9,463.5 c -1.2,3.6 -4,5.2 -6.8,5.2 -0.2,-0.9 -0.5,-1.7 -0.7,-2.6 -0.2,-0.9 -0.3,-1.8 -0.3,-2.7 -0.2,-1.8 0,-3.6 0.5,-5.4 0.9,-3.4 3,-5.8 5.8,-6.4 1,1.9 1.8,3.9 2,6 0.1,1 0.2,2.1 0.1,3 0,1 -0.3,2 -0.6,2.9 z"
             id="path4529" />
        </g>
        <g
           id="g4537">
          <path
             style="fill:#fbcc34"
             inkscape:connector-curvature="0"
             d="m 232.3,479.7 c 2.3,2.3 5.1,3.4 7.9,2.9 0.2,-0.9 0.1,-1.8 0.1,-2.6 -0.1,-0.9 -0.2,-1.7 -0.5,-2.6 -0.6,-1.6 -1.5,-3.1 -2.7,-4.3 -2.6,-2.2 -5.6,-2.5 -8.2,-1.5 0,0.7 0.1,1.5 0.3,2.2 0.2,0.7 0.3,1.4 0.6,2.1 0.3,0.7 0.7,1.3 1.1,2 0.3,0.6 0.8,1.2 1.4,1.8 z"
             id="path4533" />
          <path
             style="fill:#fbcc34"
             inkscape:connector-curvature="0"
             d="m 250.2,479 c -2,3.2 -5,4.2 -7.8,3.6 0,-0.9 -0.1,-1.8 -0.1,-2.7 0,-0.9 0.1,-1.8 0.3,-2.7 0.3,-1.8 0.8,-3.5 1.7,-5.1 1.6,-3.1 4.2,-5 7,-4.9 0.3,1 0.5,2.1 0.7,3.1 0.1,1.1 0.1,2.1 0,3.2 -0.1,1 -0.3,2 -0.6,3 -0.3,0.9 -0.7,1.7 -1.2,2.5 z"
             id="path4535" />
        </g>
        <g
           id="g4543">
          <path
             style="fill:#fbcc34"
             inkscape:connector-curvature="0"
             d="m 231.4,491.5 c 1.7,2.7 4.2,4.4 7,4.6 0.3,-0.8 0.5,-1.7 0.6,-2.6 0.1,-0.9 0.1,-1.8 0.1,-2.6 -0.2,-1.7 -0.8,-3.4 -1.7,-4.7 -2,-2.7 -4.9,-3.6 -7.7,-3.2 -0.1,0.7 -0.2,1.5 -0.2,2.2 0,0.7 0,1.5 0.2,2.2 0.1,0.7 0.4,1.4 0.6,2.2 0.4,0.5 0.7,1.2 1.1,1.9 z"
             id="path4539" />
          <path
             style="fill:#fbcc34"
             inkscape:connector-curvature="0"
             d="m 249.1,494.7 c -2.6,2.7 -5.9,3 -8.4,1.8 0.1,-0.9 0.3,-1.8 0.5,-2.7 0.2,-0.9 0.5,-1.7 0.9,-2.6 0.7,-1.7 1.5,-3.3 2.8,-4.6 2.3,-2.7 5.2,-4 7.9,-3.3 0.1,1.1 0.1,2.1 0,3.2 -0.1,1.1 -0.4,2.1 -0.7,3.1 -0.3,1 -0.7,1.9 -1.2,2.8 -0.6,0.9 -1.2,1.7 -1.8,2.3 z"
             id="path4541" />
        </g>
        <g
           id="g4549">
          <path
             style="fill:#fbcc34"
             inkscape:connector-curvature="0"
             d="m 228,502.7 c 0.3,0.7 0.6,1.5 1,2.1 0.4,0.6 0.8,1.2 1.3,1.7 1,1 2.2,1.8 3.6,2.2 1,-1.4 1.6,-3.2 1.8,-4.9 0.2,-1.7 0,-3.5 -0.6,-5 -1.3,-3.1 -4,-4.6 -6.8,-4.8 -0.3,0.7 -0.5,1.4 -0.6,2.1 -0.2,0.7 -0.3,1.4 -0.3,2.2 -0.1,1.4 0.1,2.9 0.6,4.4 z"
             id="path4545" />
          <path
             style="fill:#fbcc34"
             inkscape:connector-curvature="0"
             d="m 244.5,509.8 c -0.8,0.5 -1.6,0.9 -2.4,1.1 -0.8,0.2 -1.6,0.3 -2.3,0.3 -1.5,-0.1 -2.8,-0.6 -3.9,-1.4 0.7,-1.7 1.4,-3.4 2.5,-4.8 1.1,-1.5 2.2,-2.8 3.7,-3.9 2.8,-2.2 5.9,-2.7 8.5,-1.4 -0.2,1 -0.4,2.1 -0.7,3.1 -0.4,1 -0.8,2 -1.4,2.9 -1,1.6 -2.4,3.1 -4,4.1 z"
             id="path4547" />
        </g>
        <g
           id="g4555">
          <path
             style="fill:#fbcc34"
             inkscape:connector-curvature="0"
             d="m 222.2,513 c 0.3,3.1 1.9,5.8 4.4,7.1 0.6,-0.6 1.2,-1.3 1.7,-2 0.5,-0.8 0.8,-1.5 1.2,-2.4 0.7,-1.6 0.7,-3.4 0.5,-5 -0.2,-1.6 -1,-3 -2,-4 -1,-1 -2.2,-1.8 -3.5,-2.2 -1.8,2.4 -2.7,5.3 -2.3,8.5 z"
             id="path4551" />
          <path
             style="fill:#fbcc34"
             inkscape:connector-curvature="0"
             d="m 236.7,523.5 c -3.6,1.3 -6.6,0.2 -8.4,-2 0.5,-0.8 1,-1.5 1.6,-2.2 0.6,-0.7 1.2,-1.4 1.9,-2 1.4,-1.2 2.8,-2.3 4.5,-3 1.7,-0.7 3.2,-1.1 4.7,-1 1.5,0.1 2.8,0.6 3.9,1.5 -1.4,4.1 -4.7,7.4 -8.2,8.7 z"
             id="path4553" />
        </g>
        <g
           id="g4561">
          <path
             style="fill:#fbcc34"
             inkscape:connector-curvature="0"
             d="m 214.3,521.7 c -0.4,3.1 0.6,6.1 2.7,7.9 1.5,-0.9 2.8,-2.1 3.7,-3.7 0.5,-0.7 0.9,-1.5 1.1,-2.3 0.2,-0.8 0.4,-1.7 0.4,-2.5 0.1,-1.7 -0.3,-3.1 -1,-4.4 -0.7,-1.2 -1.8,-2.2 -3,-2.9 -0.3,0.2 -0.5,0.5 -0.8,0.8 -0.3,0.3 -0.5,0.5 -0.7,0.8 -0.5,0.6 -0.8,1.2 -1.2,1.9 -0.6,1.4 -1.1,2.8 -1.2,4.4 z"
             id="path4557" />
          <path
             style="fill:#fbcc34"
             inkscape:connector-curvature="0"
             d="m 226.1,535.2 c -3.8,0.4 -6.5,-1.2 -7.7,-3.7 1.3,-1.3 2.8,-2.4 4.3,-3.3 0.8,-0.5 1.6,-0.8 2.5,-1.2 0.8,-0.3 1.7,-0.6 2.6,-0.8 1.8,-0.3 3.4,-0.3 4.8,0.1 1.4,0.4 2.6,1.2 3.5,2.3 -0.3,0.4 -0.6,0.9 -0.9,1.3 -0.3,0.4 -0.7,0.8 -1.1,1.2 -0.8,0.7 -1.6,1.4 -2.4,2 -1.8,1.1 -3.7,1.8 -5.6,2.1 z"
             id="path4559" />
        </g>
        <path
           style="fill:#fbcc34"
           inkscape:connector-curvature="0"
           d="m 216.1,427 c 1.7,1.2 3,2.6 3.9,4.2 0.4,0.8 0.8,1.6 1,2.4 0.2,0.8 0.3,1.6 0.3,2.4 -0.8,0.1 -1.5,0 -2.3,-0.1 -0.8,-0.1 -1.6,-0.2 -2.4,-0.5 -1.6,-0.5 -3.2,-1.2 -4.7,-2.2 -0.7,-0.6 -1.5,-1 -2.1,-1.6 -0.6,-0.6 -1.2,-1.3 -1.7,-1.9 -1,-1.3 -1.8,-2.7 -2.2,-4.2 1.4,-0.5 3.1,-0.7 4.9,-0.5 0.9,0.1 1.8,0.4 2.7,0.7 0.9,0.3 1.8,0.7 2.6,1.3 z"
           id="path4563" />
      </g>
      <g
         id="g4625">
        <g
           id="g4573">
          <path
             style="fill:#fbcc34"
             inkscape:connector-curvature="0"
             d="m 151,528.5 c 1,2.9 0.7,6.1 -0.9,8.3 -3.3,-1.2 -6.2,-3.8 -7,-7.1 -0.4,-1.6 -0.4,-3.1 0.1,-4.5 0.5,-1.4 1.3,-2.5 2.3,-3.5 0.6,0.4 1.3,0.7 1.8,1.2 0.6,0.5 1.1,1 1.5,1.6 0.5,0.5 0.9,1.2 1.3,1.8 0.3,0.8 0.6,1.5 0.9,2.2 z"
             id="path4567" />
          <path
             style="fill:#fbcc34"
             inkscape:connector-curvature="0"
             d="m 151,528.5 c 1,2.9 0.7,6.1 -0.9,8.3 -3.3,-1.2 -6.2,-3.8 -7,-7.1 -0.4,-1.6 -0.4,-3.1 0.1,-4.5 0.5,-1.4 1.3,-2.5 2.3,-3.5 0.6,0.4 1.3,0.7 1.8,1.2 0.6,0.5 1.1,1 1.5,1.6 0.5,0.5 0.9,1.2 1.3,1.8 0.3,0.8 0.6,1.5 0.9,2.2 z"
             id="path4569" />
          <path
             style="fill:#fbcc34"
             inkscape:connector-curvature="0"
             d="m 142.3,544.2 c 3.8,-0.4 6,-2.6 6.7,-5.3 -3,-2 -6.7,-3.1 -10.2,-3.1 -1.8,0 -3.4,0.4 -4.7,1.1 -1.3,0.7 -2.3,1.7 -2.9,3 0.7,0.7 1.6,1.4 2.5,1.9 0.9,0.6 1.8,1.1 2.8,1.5 1,0.4 2,0.6 2.9,0.8 1,0.2 1.9,0.3 2.9,0.1 z"
             id="path4571" />
        </g>
        <g
           id="g4579">
          <path
             style="fill:#fbcc34"
             inkscape:connector-curvature="0"
             d="m 135.8,447.2 c -3.1,0.5 -6.1,-0.5 -8,-2.5 0.9,-1.5 2.1,-2.9 3.6,-3.8 0.7,-0.5 1.5,-0.9 2.3,-1.2 0.8,-0.3 1.6,-0.4 2.5,-0.5 3.3,-0.3 5.9,1.5 7.4,3.9 -0.5,0.5 -1,1.1 -1.6,1.5 -0.6,0.5 -1.2,0.9 -1.8,1.2 -1.3,0.8 -2.8,1.2 -4.4,1.4 z"
             id="path4575" />
          <path
             style="fill:#fbcc34"
             inkscape:connector-curvature="0"
             d="m 122.1,435.7 c -0.3,3.8 1.3,6.4 3.9,7.6 1.3,-1.3 2.3,-2.8 3.2,-4.4 0.4,-0.8 0.8,-1.6 1.1,-2.5 0.3,-0.8 0.6,-1.7 0.7,-2.6 0.6,-3.6 -0.2,-6.6 -2.5,-8.2 -0.9,0.6 -1.7,1.3 -2.4,2.1 -0.7,0.8 -1.4,1.6 -2,2.4 -1.1,1.8 -1.8,3.7 -2,5.6 z"
             id="path4577" />
        </g>
        <g
           id="g4585">
          <path
             style="fill:#fbcc34"
             inkscape:connector-curvature="0"
             d="m 129.2,457 c -1.5,0.6 -3,0.8 -4.4,0.6 -1.4,-0.1 -2.8,-0.6 -3.9,-1.4 0.3,-0.8 0.7,-1.6 1.1,-2.4 0.5,-0.8 0.9,-1.5 1.6,-2.1 0.6,-0.6 1.3,-1.2 2,-1.6 0.4,-0.2 0.7,-0.4 1.1,-0.6 0.4,-0.2 0.8,-0.3 1.2,-0.4 3.2,-0.9 6.1,0.1 8,2.2 -0.3,0.7 -0.7,1.3 -1.2,1.8 -0.5,0.6 -1,1.1 -1.5,1.6 -1.1,1 -2.5,1.8 -4,2.3 z"
             id="path4581" />
          <path
             style="fill:#fbcc34"
             inkscape:connector-curvature="0"
             d="m 113.3,448.8 c 0.2,1.9 0.9,3.4 1.9,4.5 1,1.1 2.2,1.8 3.6,2.1 0.5,-0.8 0.9,-1.6 1.3,-2.4 0.4,-0.8 0.6,-1.7 0.9,-2.6 0.3,-0.9 0.5,-1.7 0.6,-2.6 0.1,-0.4 0.1,-0.9 0.1,-1.4 0,-0.4 0,-0.9 0,-1.3 -0.1,-3.6 -1.7,-6.4 -4.3,-7.5 -0.7,0.8 -1.3,1.7 -1.9,2.6 -0.6,0.9 -1.1,1.8 -1.4,2.8 -0.7,1.9 -1.1,3.8 -0.8,5.8 z"
             id="path4583" />
        </g>
        <g
           id="g4591">
          <path
             style="fill:#fbcc34"
             inkscape:connector-curvature="0"
             d="m 125,468 c -2.7,1.7 -5.7,2.2 -8.3,1.1 0,-0.9 0.3,-1.7 0.5,-2.6 0.3,-0.8 0.6,-1.6 1,-2.4 1,-1.5 2.1,-2.7 3.6,-3.5 3,-1.6 6,-1.2 8.3,0.4 -0.3,1.4 -1.1,2.7 -1.9,3.9 -0.4,0.6 -0.9,1.2 -1.5,1.7 -0.5,0.5 -1,1 -1.7,1.4 z"
             id="path4587" />
          <path
             style="fill:#fbcc34"
             inkscape:connector-curvature="0"
             d="m 107.6,463.5 c 1.2,3.6 4,5.2 6.8,5.2 0.2,-0.9 0.5,-1.7 0.7,-2.6 0.2,-0.9 0.3,-1.8 0.3,-2.7 0.2,-1.8 0,-3.6 -0.5,-5.4 -0.9,-3.4 -3,-5.8 -5.8,-6.4 -1,1.9 -1.8,3.9 -2,6 -0.1,1 -0.2,2.1 -0.1,3 0.1,1 0.3,2 0.6,2.9 z"
             id="path4589" />
        </g>
        <g
           id="g4597">
          <path
             style="fill:#fbcc34"
             inkscape:connector-curvature="0"
             d="m 123.3,479.7 c -2.3,2.3 -5.1,3.4 -7.9,2.9 -0.2,-0.9 -0.1,-1.8 -0.1,-2.6 0.1,-0.9 0.2,-1.7 0.5,-2.6 0.6,-1.6 1.5,-3.1 2.7,-4.3 2.6,-2.2 5.6,-2.5 8.2,-1.5 0,0.7 -0.1,1.5 -0.3,2.2 -0.2,0.7 -0.3,1.4 -0.6,2.1 -0.3,0.7 -0.7,1.3 -1.1,2 -0.4,0.6 -0.9,1.2 -1.4,1.8 z"
             id="path4593" />
          <path
             style="fill:#fbcc34"
             inkscape:connector-curvature="0"
             d="m 105.3,479 c 2,3.2 5,4.2 7.8,3.6 0,-0.9 0.1,-1.8 0.1,-2.7 0,-0.9 -0.1,-1.8 -0.3,-2.7 -0.3,-1.8 -0.8,-3.5 -1.7,-5.1 -1.6,-3.1 -4.2,-5 -7,-4.9 -0.3,1 -0.5,2.1 -0.7,3.1 -0.1,1.1 -0.1,2.1 0,3.2 0.1,1 0.3,2 0.6,3 0.3,0.9 0.7,1.7 1.2,2.5 z"
             id="path4595" />
        </g>
        <g
           id="g4603">
          <path
             style="fill:#fbcc34"
             inkscape:connector-curvature="0"
             d="m 124.2,491.5 c -1.7,2.7 -4.2,4.4 -7,4.6 -0.3,-0.8 -0.5,-1.7 -0.6,-2.6 -0.1,-0.9 -0.1,-1.8 -0.1,-2.6 0.2,-1.7 0.8,-3.4 1.7,-4.7 2,-2.7 4.9,-3.6 7.7,-3.2 0.1,0.7 0.2,1.5 0.2,2.2 0,0.7 0,1.5 -0.2,2.2 -0.1,0.7 -0.4,1.4 -0.6,2.2 -0.4,0.5 -0.7,1.2 -1.1,1.9 z"
             id="path4599" />
          <path
             style="fill:#fbcc34"
             inkscape:connector-curvature="0"
             d="m 106.5,494.7 c 2.6,2.7 5.9,3 8.4,1.8 -0.1,-0.9 -0.3,-1.8 -0.5,-2.7 -0.2,-0.9 -0.5,-1.7 -0.9,-2.6 -0.7,-1.7 -1.5,-3.3 -2.8,-4.6 -2.3,-2.7 -5.2,-4 -7.9,-3.3 -0.1,1.1 -0.1,2.1 0,3.2 0.1,1.1 0.4,2.1 0.7,3.1 0.3,1 0.7,1.9 1.2,2.8 0.5,0.9 1.1,1.7 1.8,2.3 z"
             id="path4601" />
        </g>
        <g
           id="g4609">
          <path
             style="fill:#fbcc34"
             inkscape:connector-curvature="0"
             d="m 127.6,502.7 c -0.3,0.7 -0.6,1.5 -1,2.1 -0.4,0.6 -0.8,1.2 -1.3,1.7 -1,1 -2.2,1.8 -3.6,2.2 -1,-1.4 -1.6,-3.2 -1.8,-4.9 -0.2,-1.7 0,-3.5 0.6,-5 1.3,-3.1 4,-4.6 6.8,-4.8 0.3,0.7 0.5,1.4 0.6,2.1 0.2,0.7 0.3,1.4 0.3,2.2 0,1.4 -0.1,2.9 -0.6,4.4 z"
             id="path4605" />
          <path
             style="fill:#fbcc34"
             inkscape:connector-curvature="0"
             d="m 111.1,509.8 c 0.8,0.5 1.6,0.9 2.4,1.1 0.8,0.2 1.6,0.3 2.3,0.3 1.5,-0.1 2.8,-0.6 3.9,-1.4 -0.7,-1.7 -1.4,-3.4 -2.5,-4.8 -1.1,-1.5 -2.2,-2.8 -3.7,-3.9 -2.8,-2.2 -5.9,-2.7 -8.5,-1.4 0.2,1 0.4,2.1 0.7,3.1 0.4,1 0.8,2 1.4,2.9 0.9,1.6 2.4,3.1 4,4.1 z"
             id="path4607" />
        </g>
        <g
           id="g4615">
          <path
             style="fill:#fbcc34"
             inkscape:connector-curvature="0"
             d="m 133.4,513 c -0.3,3.1 -1.9,5.8 -4.4,7.1 -0.6,-0.6 -1.2,-1.3 -1.7,-2 -0.5,-0.8 -0.8,-1.5 -1.2,-2.4 -0.7,-1.6 -0.7,-3.4 -0.5,-5 0.2,-1.6 1,-3 2,-4 1,-1 2.2,-1.8 3.5,-2.2 1.7,2.4 2.6,5.3 2.3,8.5 z"
             id="path4611" />
          <path
             style="fill:#fbcc34"
             inkscape:connector-curvature="0"
             d="m 118.8,523.5 c 3.6,1.3 6.6,0.2 8.4,-2 -0.5,-0.8 -1,-1.5 -1.6,-2.2 -0.6,-0.7 -1.2,-1.4 -1.9,-2 -1.4,-1.2 -2.8,-2.3 -4.5,-3 -1.7,-0.7 -3.2,-1.1 -4.7,-1 -1.5,0.1 -2.8,0.6 -3.9,1.5 1.5,4.1 4.7,7.4 8.2,8.7 z"
             id="path4613" />
        </g>
        <g
           id="g4621">
          <path
             style="fill:#fbcc34"
             inkscape:connector-curvature="0"
             d="m 141.3,521.7 c 0.4,3.1 -0.6,6.1 -2.7,7.9 -1.5,-0.9 -2.8,-2.1 -3.7,-3.7 -0.5,-0.7 -0.9,-1.5 -1.1,-2.3 -0.2,-0.8 -0.4,-1.7 -0.4,-2.5 -0.1,-1.7 0.3,-3.1 1,-4.4 0.7,-1.2 1.8,-2.2 3,-2.9 0.3,0.2 0.5,0.5 0.8,0.8 0.3,0.3 0.5,0.5 0.7,0.8 0.5,0.6 0.8,1.2 1.2,1.9 0.6,1.4 1.1,2.8 1.2,4.4 z"
             id="path4617" />
          <path
             style="fill:#fbcc34"
             inkscape:connector-curvature="0"
             d="m 129.4,535.2 c 3.8,0.4 6.5,-1.2 7.7,-3.7 -1.3,-1.3 -2.8,-2.4 -4.3,-3.3 -0.8,-0.5 -1.6,-0.8 -2.5,-1.2 -0.8,-0.3 -1.7,-0.6 -2.6,-0.8 -1.8,-0.3 -3.4,-0.3 -4.8,0.1 -1.4,0.4 -2.6,1.2 -3.5,2.3 0.3,0.4 0.6,0.9 0.9,1.3 0.3,0.4 0.7,0.8 1.1,1.2 0.8,0.7 1.6,1.4 2.4,2 1.9,1.1 3.8,1.8 5.6,2.1 z"
             id="path4619" />
        </g>
        <path
           style="fill:#fbcc34"
           inkscape:connector-curvature="0"
           d="m 139.4,427 c -1.7,1.2 -3,2.6 -3.9,4.2 -0.4,0.8 -0.8,1.6 -1,2.4 -0.2,0.8 -0.3,1.6 -0.3,2.4 0.8,0.1 1.5,0 2.3,-0.1 0.8,-0.1 1.6,-0.2 2.4,-0.5 1.6,-0.5 3.2,-1.2 4.7,-2.2 0.7,-0.6 1.5,-1 2.1,-1.6 0.6,-0.6 1.2,-1.3 1.7,-1.9 1,-1.3 1.8,-2.7 2.2,-4.2 -1.4,-0.5 -3.1,-0.7 -4.9,-0.5 -0.9,0.1 -1.8,0.4 -2.7,0.7 -0.8,0.3 -1.8,0.7 -2.6,1.3 z"
           id="path4623" />
      </g>
      <g
         id="g4631">
        <path
           style="fill:#fffac2"
           inkscape:connector-curvature="0"
           d="m 183.2,456.2 -24.6,42.7 -1,5.8 c -0.3,2 1.3,3.6 3.2,3.5 l 26,-45 z"
           id="path4627" />
        <path
           style="fill:#fffac2"
           inkscape:connector-curvature="0"
           d="M 191.9,467.3 190,467 c -0.8,-0.1 -1.4,-0.5 -1.9,-1.1 l -23.4,40.5 6.6,-3.5 z"
           id="path4629" />
      </g>
    </g>
  </g>
</svg>
