<?xml version="1.0" encoding="UTF-8" standalone="no"?>
<!-- Created with Inkscape (http://www.inkscape.org/) -->

<svg
   width="216.22mm"
   height="212.22mm"
   viewBox="-2.7755576e-17 0 281.31253 291.69175"
   version="1.1"
   id="svg5"
   inkscape:version="1.1.1 (3bf5ae0d25, 2021-09-20)"
   sodipodi:docname="notFound.svg"
   xmlns:inkscape="http://www.inkscape.org/namespaces/inkscape"
   xmlns:sodipodi="http://sodipodi.sourceforge.net/DTD/sodipodi-0.dtd"
   xmlns="http://www.w3.org/2000/svg"
   xmlns:svg="http://www.w3.org/2000/svg">
  <sodipodi:namedview
     id="namedview7"
     pagecolor="#ffffff"
     bordercolor="#666666"
     borderopacity="1.0"
     inkscape:pageshadow="2"
     inkscape:pageopacity="0.0"
     inkscape:pagecheckerboard="0"
     inkscape:document-units="mm"
     showgrid="false"
     inkscape:zoom="0.52410025"
     inkscape:cx="205.11343"
     inkscape:cy="290.97487"
     inkscape:window-width="1680"
     inkscape:window-height="987"
     inkscape:window-x="1912"
     inkscape:window-y="-8"
     inkscape:window-maximized="1"
     inkscape:current-layer="layer1"
     scale-x="1"
     viewbox-width="273.22"
     viewbox-height="408"
     viewbox-x="0"
     fit-margin-top="0"
     fit-margin-left="0"
     fit-margin-right="0"
     fit-margin-bottom="0"
     width="62.68217mm" />
  <defs
     id="defs2">
    <rect
       x="33.729557"
       y="38.451694"
       width="213.17081"
       height="224.63885"
       id="rect2752" />
    <rect
       x="33.729557"
       y="38.451694"
       width="213.17081"
       height="224.63885"
       id="rect2752-3" />
  </defs>
  <g
     inkscape:label="Capa 1"
     inkscape:groupmode="layer"
     id="layer1"
     transform="translate(-63.636655,-108.86353)">
    <path
       style="fill:#000000;stroke:#cecece;stroke-width:0.364235;stroke-opacity:0"
       id="path1144"
       d="m 119.28008,200.84807 c 0.33126,-6.10904 0.98357,-12.18912 1.66486,-18.26769 1.17267,-8.68667 3.02648,-17.26817 5.54235,-25.66247 0.78634,-1.10348 0.53734,-2.75754 1.30644,-3.88785 0.15851,-0.23295 0.96095,-0.56487 0.7625,-0.36485 -1.1741,1.18337 -3.13258,1.78345 -3.71842,3.34411 -0.33245,0.88564 1.08937,1.54879 1.57757,2.35906 0.69893,1.16002 1.3207,2.36482 1.98105,3.54723 4.72015,8.95002 9.13107,18.06484 13.45708,27.21121 1.68976,3.42881 3.28138,6.90387 4.90555,10.3635 0.81336,1.73252 1.54903,3.44976 2.73569,4.95322 5.92219,1.8561 6.59213,-4.77966 7.01938,-8.11862 0.24823,-1.93987 0.74702,-6.97725 0.92791,-8.75345 0.66284,-8.44374 1.48191,-16.87455 2.1438,-25.31832 0.29857,-3.18426 0.82934,-6.33987 1.08569,-9.52794 0.0737,-1.21092 0.0432,-0.61841 0.0931,-1.77745 0,0 -4.8014,2.42239 -4.8014,2.42239 v 0 c -0.0418,1.14071 -0.016,0.55772 -0.0786,1.7489 -0.22126,3.14024 -0.6318,6.26378 -0.8334,9.40593 -0.48527,8.40561 -1.1275,16.80515 -1.92624,25.1863 -0.32007,2.65724 -0.7025,6.15077 -1.16244,8.83199 -0.17299,1.00847 -0.34967,2.01983 -0.62471,3.00538 -0.17429,0.62452 -1.36682,1.81245 -0.71845,1.8076 1.27538,-0.01 5.84243,-2.48801 3.4424,-1.67037 -1.31443,-1.33941 -2.07522,-3.01091 -2.92241,-4.67863 -1.72912,-3.40385 -3.37129,-6.85283 -5.07236,-10.27063 -4.43893,-9.10219 -8.93287,-18.17822 -13.40351,-27.26485 -0.61731,-1.21931 -1.21068,-2.45103 -1.85193,-3.65792 -0.46569,-0.87649 -0.48783,-2.43429 -1.46797,-2.59055 -1.96302,-0.31293 -3.89726,0.82171 -5.7885,1.43374 -0.25408,0.0822 -0.40985,0.36561 -0.52144,0.60823 -0.55577,1.20835 -0.55734,2.62931 -1.12487,3.82828 -2.25545,8.42978 -4.04509,16.98092 -5.27879,25.62193 -0.76552,6.16956 -1.45379,12.34834 -2.2245,18.51578 0,0 4.87466,-2.38319 4.87466,-2.38319 z" />
    <path
       style="fill:#000000;stroke:#cecece;stroke-width:0.364235;stroke-opacity:0"
       id="path1146"
       d="m 222.32313,155.26722 c -5.29168,1.41866 -10.16095,3.90585 -14.89475,6.60355 -6.36377,3.48175 -12.28189,7.62043 -16.54604,13.57936 -1.9229,2.68715 -2.44127,4.06832 -3.85053,6.98822 -1.33258,3.58611 -2.39256,7.64415 -0.45189,11.24588 1.09232,2.02726 2.22555,2.81497 3.89243,4.36853 4.52142,3.35045 9.93046,5.31117 15.47077,6.18362 1.06271,0.16735 2.13984,0.22472 3.20976,0.33709 2.71372,-0.11197 3.46287,-0.009 6.10947,-0.64591 4.55218,-1.09492 8.73046,-3.72087 12.59109,-6.19817 0.86616,-0.5558 1.60325,-1.29079 2.40488,-1.93619 3.91191,-3.48225 6.96708,-7.49177 9.10595,-12.25994 1.55266,-4.09883 1.3646,-8.42128 0.32657,-12.60543 -1.08851,-3.12579 -2.91347,-5.83806 -5.08394,-8.30149 -2.13424,-2.24383 -4.68279,-4.01672 -7.29984,-5.64457 -2.52221,-1.60539 -5.06869,-3.12771 -7.84307,-4.25411 0,0 -4.41549,2.96336 -4.41549,2.96336 v 0 c 2.78549,1.0448 5.32987,2.5344 7.81974,4.15412 2.58307,1.59011 5.10592,3.32286 7.23221,5.50375 2.11442,2.40018 3.90205,5.03526 4.97562,8.0766 1.06059,4.08688 1.18001,8.28188 -0.43038,12.2628 -2.14556,4.61935 -5.21092,8.65486 -9.08441,11.98628 -0.80954,0.62623 -1.83016,1.04841 -2.42861,1.87869 -0.37772,0.52404 2.3251,-1.11838 1.71918,-0.89444 -0.94083,0.34771 -1.79772,0.89521 -2.72903,1.26766 -2.83895,1.13535 -5.80613,1.70787 -8.86456,1.7239 -1.06704,-0.0929 -2.14101,-0.12571 -3.20111,-0.27862 -5.45893,-0.78738 -10.81335,-2.71444 -15.27113,-5.98244 -1.60546,-1.5056 -2.66871,-2.23871 -3.71104,-4.19608 -1.84374,-3.46231 -0.79966,-7.36331 0.46839,-10.8027 1.96139,-4.02674 3.43607,-6.74838 6.5436,-10.08276 7.99691,-8.58068 -1.83948,2.41559 6.36082,-5.57224 0.21973,-0.21404 -0.58822,0.17427 -0.88233,0.26141 4.58795,-2.64597 9.30394,-5.12307 14.46765,-6.44933 0,0 4.29002,-3.2804 4.29002,-3.2804 z" />
    <path
       style="fill:#000000;stroke:#cecece;stroke-width:0.364235;stroke-opacity:0"
       id="path1148"
       d="m 267.00667,156.55032 c 0.3653,7.75709 0.21643,15.5081 -0.13978,23.26132 -0.64383,9.05789 -1.73041,18.07887 -2.89174,27.08294 0,0 4.43068,-2.19543 4.43068,-2.19543 v 0 c 0.85872,-8.99061 1.8908,-17.96482 2.59879,-26.96913 0.44661,-7.87442 0.68566,-15.7476 0.81651,-23.63279 0,0 -4.81446,2.45309 -4.81446,2.45309 z" />
    <path
       style="fill:#000000;stroke:#cecece;stroke-width:0.364235;stroke-opacity:0"
       id="path1150"
       d="m 246.96591,156.99666 c 9.58065,0.29596 19.17289,0.23746 28.7583,0.32044 1.85731,0.0218 3.71462,0.0436 5.57193,0.0654 0,0 3.80308,-2.75967 3.80308,-2.75967 v 0 c -1.88649,-3.2e-4 -3.77298,-7.2e-4 -5.65947,-0.001 -9.34942,-0.0589 -18.72182,-0.0356 -28.04881,-0.74519 0,0 -4.42503,3.12001 -4.42503,3.12001 z" />
    <path
       style="fill:#000000;stroke:#cecece;stroke-width:0.364235;stroke-opacity:0"
       id="path1158"
       d="m 99.775726,259.16461 c 0.218311,9.29835 -0.492867,18.60127 -1.108743,27.87405 -0.752955,8.99351 -0.363656,4.61925 -1.160728,13.12342 0,0 4.130825,-2.06016 4.130825,-2.06016 v 0 c 0.66653,-8.45863 0.31988,-4.10144 1.04116,-13.07147 0.7106,-9.4357 1.4687,-18.8722 1.92247,-28.32429 0,0 -4.824984,2.45845 -4.824984,2.45845 z" />
    <path
       style="fill:#000000;stroke:#cecece;stroke-width:0.364235;stroke-opacity:0"
       id="path1160"
       d="m 94.246004,259.64323 c 8.112916,-0.17229 16.214306,-0.66727 24.323396,-0.97104 1.98548,-0.0577 3.97096,-0.11544 5.95643,-0.17315 0,0 3.75069,-2.74315 3.75069,-2.74315 v 0 c -2.00038,0.068 -4.00075,0.13605 -6.00113,0.20407 -7.87524,0.25065 -15.75876,0.66824 -23.638838,0.49335 0,0 -4.390548,3.18992 -4.390548,3.18992 z" />
    <path
       style="fill:#000000;stroke:#cecece;stroke-width:0.364235;stroke-opacity:0"
       id="path1162"
       d="m 96.327649,275.60252 c 6.245321,-0.15857 12.494811,0.0866 18.737541,0.26852 0,0 4.00124,-2.89102 4.00124,-2.89102 v 0 c -6.11809,-0.14359 -12.23111,-0.4097 -18.34823,-0.56741 0,0 -4.390551,3.18991 -4.390551,3.18991 z" />
    <path
       style="fill:#000000;stroke:#cecece;stroke-width:0.364235;stroke-opacity:0"
       id="path1164"
       d="m 150.53117,263.63821 c -3.22904,2.74594 -6.44593,5.55252 -9.23523,8.75691 -0.74047,0.85066 -1.41737,1.75462 -2.12606,2.63193 -1.78721,2.56503 -3.19747,5.36717 -4.21177,8.32342 -0.52559,1.53185 -1.05336,3.27207 -0.96817,4.92695 0.0396,0.76857 0.31609,1.50636 0.47414,2.25954 0.39933,0.69014 0.71604,1.43521 1.198,2.0704 2.64025,3.47974 6.93687,5.02947 10.96721,6.15994 4.05252,0.94972 8.20644,1.29543 12.33784,0.79788 4.2139,-1.01853 8.40986,-3.1382 11.31291,-6.41991 1.18475,-1.33928 1.30528,-1.67446 2.22757,-3.16912 1.82621,-3.40933 2.62834,-7.21458 3.08893,-11.0202 0.45871,-4.04741 -0.28819,-7.90035 -1.5175,-11.73076 -1.17273,-3.13566 -2.90729,-6.00069 -5.50731,-8.13109 -2.32343,-1.85355 -5.14668,-2.22951 -8.00855,-2.46928 -3.08194,-0.10576 -6.17892,-0.27655 -9.26138,-0.10989 -3.2733,0.33833 -6.90211,1.90443 -8.41716,4.95857 -0.65609,1.63828 -1.06616,3.34411 -1.27611,5.09226 -0.24674,1.87643 -0.81865,3.67934 -1.20619,5.52728 -0.15344,0.75378 -0.22408,1.51907 -0.2916,2.28394 0,0 4.8287,-2.40403 4.8287,-2.40403 v 0 c 0.0733,-0.74415 0.15034,-1.48848 0.30547,-2.22127 0.39683,-1.85314 0.9254,-3.6776 1.17955,-5.56007 0.24766,-1.69267 0.63743,-3.36589 1.37997,-4.91793 1.22119,-1.95617 3.23166,-2.46666 -3.23048,1.13573 -0.21556,0.12017 0.42249,-0.26002 0.65185,-0.35115 0.63251,-0.25131 1.1098,-0.27646 1.78387,-0.37387 3.07409,-0.31033 6.18724,-0.0661 9.26879,10e-4 2.75857,0.20908 5.52441,0.4996 7.80485,2.22924 2.58448,1.99067 4.27173,4.7929 5.41868,7.82403 1.20759,3.76363 1.89847,7.55276 1.41862,11.52435 -0.51031,3.74729 -1.30826,7.49977 -3.20125,10.82115 -0.906,1.3956 -1.09153,1.81634 -2.25799,3.04915 -0.4553,0.48119 -2.11279,1.3986 -1.45163,1.35731 1.05662,-0.066 1.90805,-0.9214 2.82913,-1.44333 1.14578,-0.64925 -4.66678,2.45368 -3.69531,1.3977 -4.1482,0.60534 -8.17336,0.25074 -12.27094,-0.59254 -3.92733,-1.03136 -8.15789,-2.44794 -10.73354,-5.83 -0.44953,-0.59027 -0.73837,-1.28716 -1.10756,-1.93074 -0.1402,-0.70356 -0.39253,-1.39384 -0.4206,-2.11069 -0.0617,-1.57604 0.46882,-3.3183 0.97007,-4.7732 1.00201,-2.90835 2.40058,-5.65395 4.20505,-8.14839 0.71323,-0.86582 1.39481,-1.7587 2.13969,-2.59745 2.89731,-3.2625 6.2366,-6.10614 9.61814,-8.84767 0,0 -5.0127,2.02328 -5.0127,2.02328 z" />
    <path
       style="fill:#000000;stroke:#cecece;stroke-width:0.364235;stroke-opacity:0"
       id="path1166"
       d="m 188.58216,259.00397 c -0.37904,4.26153 0.0952,8.51677 0.518,12.75429 0.51128,4.69727 1.49826,9.33075 3.10563,13.7737 0.98041,2.66814 2.42846,4.96372 4.52985,6.8561 1.49716,1.24817 3.11746,2.26849 4.96797,2.885 1.9368,0.62225 3.38849,0.34321 5.24517,-0.37403 5.61492,-2.69454 7.34851,-4.38364 10.85375,-8.88237 2.1284,-2.73317 3.60113,-5.86248 4.85795,-9.06836 0.9335,-2.54621 1.12566,-5.24634 1.23839,-7.92949 0.0351,-2.74802 0.10212,-5.50249 -0.0769,-8.24608 -0.0422,-0.51027 -0.0844,-1.02054 -0.12661,-1.53081 0,0 -4.68533,2.43351 -4.68533,2.43351 v 0 c 0.0375,0.5093 0.0749,1.01859 0.11241,1.52789 0.15376,2.73327 0.0773,5.47348 0.0281,8.20949 -0.11365,2.62944 -0.34467,5.27003 -1.2818,7.75533 -1.24674,3.17052 -2.7516,6.23633 -4.89039,8.91358 -1.33009,1.66618 -2.66365,3.41057 -4.33724,4.75419 -0.34164,0.27428 -1.46109,0.95998 -1.06863,0.76524 1.22289,-0.60681 2.38018,-1.33771 3.57026,-2.00657 -1.84233,0.80525 -2.99948,1.18104 -4.99138,0.64589 -1.82725,-0.516 -3.40922,-1.4627 -4.86776,-2.67758 -2.10971,-1.83447 -3.52265,-3.91345 -4.52979,-6.55178 -1.6059,-4.39155 -2.60686,-8.97168 -3.1203,-13.62018 -0.43276,-4.27394 -0.83993,-8.57712 -0.20528,-12.85613 0,0 -4.84602,2.46917 -4.84602,2.46917 z" />
    <path
       style="fill:#000000;stroke:#cecece;stroke-width:0.364235;stroke-opacity:0"
       id="path1168"
       d="m 244.7755,284.15398 c -0.0526,-3.47398 -0.14926,-6.94253 -0.32704,-10.4126 -0.26544,-4.55364 -0.3633,-9.11379 -0.42433,-13.67391 -0.0368,-2.9552 -0.0138,-5.91052 0.0126,-8.86566 0.002,-0.27004 -0.0306,-1.35196 0.11544,-1.66884 0.0442,-0.0959 0.37848,-0.18469 0.29052,-0.12628 -1.46098,0.97001 -3.16465,1.63237 -4.41338,2.86365 -0.25503,0.25146 0.43063,0.5738 0.61705,0.87962 0.30127,0.49421 0.56277,1.01159 0.84416,1.51739 2.43619,4.81205 4.83962,9.64283 7.4756,14.34966 2.06185,3.70571 4.45114,7.21334 6.74474,10.77572 1.32584,2.04251 2.56087,4.14499 3.79417,6.24458 0.25041,0.49288 1.62034,3.53456 2.35698,3.1823 1.80931,-0.86521 3.46722,-2.01674 5.20083,-3.02511 1.25399,-2.24779 1.52843,-4.84007 1.76092,-7.35804 0.25103,-2.81127 0.10331,-5.63656 0.28432,-8.44985 0.27836,-2.6789 0.42493,-5.36608 0.51878,-8.0567 0.0682,-2.28666 0.0836,-4.57414 0.0976,-6.86159 -0.002,-0.95529 3.7e-4,-1.91057 0.003,-2.86586 0,0 -4.7826,2.43735 -4.7826,2.43735 v 0 c 0.004,0.95354 0.008,1.90708 0.005,2.86062 0.007,2.27431 0.004,4.54917 -0.0593,6.82277 -0.0891,2.68504 -0.27689,5.36342 -0.51382,8.03936 -0.15154,2.80858 -0.0409,5.62712 -0.29421,8.43204 -0.25032,2.4233 -0.48706,5.04936 -2.02324,7.04227 1.40987,-0.71666 2.83587,-1.40243 4.22961,-2.14997 0.12944,-0.0694 -0.29284,0.17078 -0.42665,0.1102 -0.20842,-0.0943 -0.32593,-0.3243 -0.45839,-0.51084 -0.51185,-0.72084 -0.80841,-1.57997 -1.26513,-2.33246 -1.26428,-2.09135 -2.50639,-4.20008 -3.89113,-6.21459 -2.34867,-3.51496 -4.74361,-7.00624 -6.85572,-10.67133 -2.66625,-4.68721 -5.07686,-9.5144 -7.34579,-14.40568 -0.26366,-0.5338 -0.51143,-1.07574 -0.79098,-1.60138 -0.18952,-0.35636 -0.21856,-1.11718 -0.61529,-1.04289 -5.00776,0.93773 -5.41642,0.99137 -5.36855,4.21247 0.0282,2.93732 0.0663,5.87456 0.11217,8.81164 0.0904,4.55701 0.26029,9.11198 0.47852,13.66463 0.16008,3.50529 0.22287,7.00909 0.0681,10.51648 0,0 4.84603,-2.46917 4.84603,-2.46917 z" />
    <path
       style="fill:#000000;stroke:#cecece;stroke-width:0.364235;stroke-opacity:0"
       id="path1170"
       d="m 282.86823,259.21474 c -0.6321,5.2285 -1.41647,10.4368 -2.0451,15.66655 -0.6275,6.53716 -1.03074,13.09556 -1.45842,19.64893 -0.20168,3.37693 -0.10752,1.74939 -0.28377,4.88254 0,0 4.62462,-2.32937 4.62462,-2.32937 v 0 c 0.11336,-3.09931 0.0465,-1.48786 0.20451,-4.83418 0.37496,-6.53518 0.72558,-13.07835 1.40855,-19.58939 0.67081,-5.29833 1.45394,-10.57999 2.39354,-15.83779 0,0 -4.84393,2.39271 -4.84393,2.39271 z" />
    <path
       style="fill:#000000;stroke:#cecece;stroke-width:0.364235;stroke-opacity:0"
       id="path1172"
       d="m 282.91397,259.78647 c 2.91963,1.30416 5.7694,2.72529 8.54052,4.32006 3.10777,1.6032 5.93171,3.6768 8.54828,5.98292 2.19809,2.09021 3.8648,4.66529 5.28467,7.32748 1.39654,2.93736 2.08242,6.06033 2.45516,9.26886 0.43092,3.2914 0.24478,5.42953 -1.1009,8.44734 -0.94532,1.66749 -2.18229,3.25567 -3.69336,4.45721 -0.4108,0.32664 -1.7598,1.1431 -1.30582,0.87973 1.02913,-0.59705 2.02201,-1.25451 3.03301,-1.88176 -3.1079,1.28365 -6.47437,1.49349 -9.79246,1.62817 -2.89017,0.004 -5.78523,-0.28705 -8.53719,-1.19162 -0.80908,-0.36065 -1.56605,-0.82128 -2.34018,-1.24869 0,0 -4.50679,2.94575 -4.50679,2.94575 v 0 c 0.81415,0.42747 1.60648,0.8931 2.4343,1.29463 2.79746,0.96642 5.75135,1.24945 8.70007,1.31088 3.35277,-0.10402 6.74396,-0.30657 9.9302,-1.45307 4.86555,-2.71557 8.37031,-4.03072 10.89822,-8.95736 1.2581,-3.09065 1.39333,-5.36414 0.94313,-8.6769 -0.4003,-3.27035 -1.11747,-6.44811 -2.54007,-9.44401 -1.43682,-2.72349 -3.14667,-5.35507 -5.38519,-7.49084 -2.65607,-2.31269 -5.49251,-4.43233 -8.63186,-6.05205 -2.75019,-1.589 -5.58277,-2.99546 -8.40705,-4.44513 0,0 -4.52669,2.9784 -4.52669,2.9784 z" />
  </g>
</svg>
