<?xml version="1.0" encoding="UTF-8" standalone="no"?>
<!-- Created with Inkscape (http://www.inkscape.org/) -->

<svg
   width="30mm"
   height="30mm"
   viewBox="-47 -33 135 130"
   version="1.1"
   id="svg5"
   inkscape:version="1.1.1 (3bf5ae0d25, 2021-09-20)"
   sodipodi:docname="playbutton.svg"
   xmlns:inkscape="http://www.inkscape.org/namespaces/inkscape"
   xmlns:sodipodi="http://sodipodi.sourceforge.net/DTD/sodipodi-0.dtd"
   xmlns="http://www.w3.org/2000/svg"
   xmlns:svg="http://www.w3.org/2000/svg">
  <sodipodi:namedview
     id="namedview7"
     pagecolor="#ffffff"
     bordercolor="#666666"
     borderopacity="1.0"
     inkscape:pageshadow="2"
     inkscape:pageopacity="0.0"
     inkscape:pagecheckerboard="0"
     inkscape:document-units="mm"
     showgrid="false"
     inkscape:zoom="2.096401"
     inkscape:cx="65.11159"
     inkscape:cy="140.95586"
     inkscape:window-width="1680"
     inkscape:window-height="987"
     inkscape:window-x="1912"
     inkscape:window-y="-8"
     inkscape:window-maximized="1"
     inkscape:current-layer="layer1"
     scale-x="1"
     viewbox-width="273.22"
     viewbox-height="408"
     viewbox-x="0"
     fit-margin-top="0"
     fit-margin-left="0"
     fit-margin-right="0"
     fit-margin-bottom="0"
     width="62.68217mm" />
  <defs
     id="defs2" />
  <g
     inkscape:label="Capa 1"
     inkscape:groupmode="layer"
     id="layer1"
     transform="translate(-84.557894,-97.587946)">
    <path
       sodipodi:type="star"
       style="fill:#b4b4b4;fill-rule:evenodd"
       id="path242"
       inkscape:flatsided="false"
       sodipodi:sides="3"
       sodipodi:cx="184.83798"
       sodipodi:cy="384.51697"
       sodipodi:r1="157.72214"
       sodipodi:r2="238.97292"
       sodipodi:arg1="2.0943951"
       sodipodi:arg2="3.1415927"
       inkscape:rounded="0.17"
       inkscape:randomized="0"
       d="M 105.97691,521.10835 C 74.992225,503.21933 -54.134933,420.29499 -54.134933,384.51696 c -1e-6,-35.77804 129.127157,-118.70235 160.111843,-136.59137 30.98469,-17.88902 167.36285,-88.25425 198.34754,-70.36523 30.98469,17.88902 38.23567,171.17857 38.23567,206.95661 0,35.77804 -7.251,189.0676 -38.23569,206.95662 -30.98469,17.88902 -167.36283,-52.47622 -198.34752,-70.36524 z"
       transform="matrix(-0.21764803,0,0,-0.21764803,159.85734,231.21303)"
       inkscape:transform-center-x="13.002992"
       inkscape:transform-center-y="-4.9322683e-06" />
    <path
       sodipodi:type="star"
       style="fill:#d7d7d7;fill-rule:evenodd"
       id="path242-2"
       inkscape:flatsided="false"
       sodipodi:sides="3"
       sodipodi:cx="184.83798"
       sodipodi:cy="384.51697"
       sodipodi:r1="157.72214"
       sodipodi:r2="238.97292"
       sodipodi:arg1="2.0943951"
       sodipodi:arg2="3.1415927"
       inkscape:rounded="0.17"
       inkscape:randomized="0"
       transform="matrix(-0.21764803,0,0,-0.21764803,157.29301,227.64332)"
       inkscape:transform-center-x="13.002992"
       inkscape:transform-center-y="-4.9322683e-06"
       d="M 105.97691,521.10835 C 74.992225,503.21933 -54.134933,420.29499 -54.134933,384.51696 c -1e-6,-35.77804 129.127157,-118.70235 160.111843,-136.59137 30.98469,-17.88902 167.36285,-88.25425 198.34754,-70.36523 30.98469,17.88902 38.23567,171.17857 38.23567,206.95661 0,35.77804 -7.251,189.0676 -38.23569,206.95662 -30.98469,17.88902 -167.36283,-52.47622 -198.34752,-70.36524 z" />
  </g>
</svg>
